<?xml version="1.0" encoding="utf-8"?>
<!-- Generator: Adobe Illustrator 21.0.0, SVG Export Plug-In . SVG Version: 6.00 Build 0)  -->
<svg version="1.1" id="Layer_1" xmlns="http://www.w3.org/2000/svg" xmlns:xlink="http://www.w3.org/1999/xlink" x="0px" y="0px"
	 viewBox="0 0 960 560" style="enable-background:new 0 0 960 560;" xml:space="preserve">
<style type="text/css">
	.st0{fill:none;}
	.st1{display:none;}
	.st2{font-family:'Gravity-Light';}
	.st3{font-size:17px;}
	.st4{letter-spacing:1.7;}
	.st5{font-family:'CMSansSerif-Medium';}
	.st6{font-size:100px;}
	.st7{fill:#FFFFFF;}
</style>
<rect x="171" y="387.8" class="st0" width="618.1" height="20.7"/>
<text transform="matrix(1.2 0 0 0.86 324.3501 400.3105)" class="st1 st2 st3 st4">modern   corporate   training</text>
<text id="Orig_text" transform="matrix(1 0 0 1 229.2002 271.9266)" class="st1 st5 st6">SOLUTIONS</text>
<rect id="BLACK_BOX" x="66" y="159.8" width="840.9" height="118.4"/>
<g id="ACTING">
	<path class="st7" d="M307.2,256.4l-8.6,25.2H273l44.2-126.1h30.5L392,281.6h-25.6l-8.6-25.2H307.2z M332.4,182.3l-17.7,51.8h35.4
		L332.4,182.3z"/>
	<path class="st7" d="M512.2,248.4c-4.7,10.3-11.8,18.4-21.3,24.4c-9.4,5.9-20.6,8.9-33.3,8.9c-8.6,0-16.7-1.6-24.2-4.9
		c-7.5-3.2-14-7.7-19.5-13.4c-5.5-5.7-9.8-12.4-13-20c-3.2-7.7-4.7-15.9-4.7-24.7c0-8.8,1.6-17.1,4.7-24.7c3.2-7.7,7.5-14.3,13-20
		c5.5-5.7,12-10.1,19.5-13.4c7.5-3.2,15.6-4.9,24.2-4.9c12.9,0,24.1,2.9,33.7,8.8c9.6,5.9,16.7,14,21.3,24.4l-24.1,5.7
		c-2.9-5.2-7-9.5-12.3-12.9c-5.3-3.4-11.5-5-18.5-5c-5.2,0-10.1,1.1-14.6,3.3c-4.5,2.2-8.4,5.2-11.8,9c-3.3,3.8-6,8.3-7.9,13.4
		c-2,5.1-2.9,10.5-2.9,16.2c0,5.8,1,11.3,2.9,16.4c1.9,5.1,4.6,9.6,7.9,13.4c3.3,3.8,7.3,6.8,11.8,9c4.5,2.2,9.4,3.3,14.6,3.3
		c6.9,0,13.1-1.7,18.4-5c5.3-3.4,9.4-7.7,12.3-12.9L512.2,248.4z"/>
	<path class="st7" d="M576.8,177.9v103.7h-24.1V177.9h-34v-22.3h92.1v22.3H576.8z"/>
	<path class="st7" d="M646.4,281.6h-24.1V155.6h24.1V281.6z"/>
	<path class="st7" d="M771.2,281.6h-29l-51.6-89.6v89.6h-24.1V155.6h29l51.5,89.6v-89.6h24.1V281.6z"/>
	<path class="st7" d="M906.9,279.6h-22.3v-13.1c-4.3,4.9-9.6,8.6-16.1,11.2c-6.5,2.6-13.6,3.9-21.6,3.9c-8.6,0-16.7-1.6-24.2-4.9
		c-7.5-3.3-14-7.7-19.5-13.3c-5.5-5.6-9.9-12.3-13.1-20c-3.2-7.7-4.7-15.9-4.7-24.8c0-8.8,1.6-17.1,4.7-24.8
		c3.2-7.7,7.5-14.4,13.1-20c5.5-5.7,12.1-10.2,19.5-13.4c7.5-3.3,15.6-4.9,24.2-4.9c12.7,0,23.8,2.9,33.3,8.7
		c9.6,5.8,16.7,13.9,21.5,24.4l-23.9,5.8c-2.7-5-6.8-9.2-12.2-12.7c-5.5-3.5-11.7-5.2-18.6-5.2c-5.2,0-10.1,1.1-14.7,3.4
		c-4.6,2.3-8.5,5.3-11.9,9.2c-3.4,3.8-6,8.3-8,13.4c-1.9,5.1-2.9,10.5-2.9,16.2c0,5.7,1,11.1,3,16.2c2,5.1,4.8,9.6,8.2,13.4
		c3.5,3.8,7.6,6.9,12.2,9.1c4.7,2.2,9.7,3.3,15.1,3.3c4.5,0,8.7-0.7,12.7-2.1c4-1.4,7.5-3.3,10.7-5.8c3.2-2.4,5.9-5.3,8.2-8.5
		c2.3-3.3,4-6.8,5.1-10.6h-34.3v-21.4h56.4V279.6z"/>
</g>
<g id="SOLUTION">
	<path d="M117.3,278.4c7.3,0,13.8,0.9,19.5,2.8c5.7,1.9,10.4,4.3,14.3,7.4c3.9,3.1,7,6.6,9.4,10.5c2.4,3.9,3.9,8.1,4.7,12.4
		l-23.4,5.6c-0.4-5-2.7-9.1-6.9-12.4c-4.3-3.2-10.1-4.9-17.5-4.9c-3.2,0-6.2,0.3-9.2,0.9c-3,0.6-5.6,1.5-7.9,2.6
		c-2.3,1.2-4.1,2.6-5.5,4.4c-1.3,1.7-2,3.8-2,6.1c0,4.2,2.2,7.3,6.7,9.3c4.4,2,11.5,4,21.3,5.8c7.5,1.4,14.3,3,20.4,4.8
		c6,1.8,11.2,4.1,15.4,6.9c4.3,2.8,7.5,6.3,9.9,10.4c2.3,4.2,3.5,9.3,3.5,15.5c0,5.8-1.2,11.1-3.7,15.8c-2.4,4.7-5.9,8.7-10.5,12
		c-4.6,3.3-10.1,5.8-16.5,7.6c-6.5,1.7-13.7,2.6-21.7,2.6c-5.7,0-11.4-0.7-17.1-2.1c-5.7-1.4-10.9-3.5-15.6-6.4
		c-4.7-2.8-8.8-6.5-12.1-10.9c-3.4-4.4-5.5-9.6-6.5-15.7c4.6-1,9.1-2.1,13.4-3.1c4.3-1,7.7-1.9,10.1-2.4c0.2,3.4,1.2,6.3,3,8.7
		c1.8,2.4,4,4.4,6.6,6c2.6,1.6,5.5,2.8,8.7,3.6c3.2,0.8,6.3,1.2,9.5,1.2c3.4,0,6.8-0.3,10.2-0.9c3.4-0.6,6.5-1.5,9.1-2.9
		c2.7-1.3,4.8-3,6.5-5.1c1.6-2,2.5-4.5,2.5-7.4c0-1.9-0.5-3.6-1.4-5.2c-0.9-1.6-2.5-3.1-4.8-4.4c-2.3-1.3-5.4-2.6-9.2-3.7
		c-3.8-1.2-8.7-2.3-14.5-3.3c-5.8-1-11.6-2.3-17.3-3.9c-5.7-1.6-10.7-3.7-15.1-6.4c-4.4-2.7-7.9-6.2-10.7-10.4
		c-2.7-4.2-4.1-9.6-4.1-16.1c0-5.2,1.2-10,3.5-14.3c2.3-4.3,5.6-8,9.9-11.1c4.3-3.1,9.4-5.5,15.3-7.2
		C103.2,279.2,109.9,278.4,117.3,278.4z"/>
	<path d="M241.2,278.4c8.9,0,17.1,1.6,24.7,4.9c7.6,3.3,14.1,7.7,19.6,13.4c5.5,5.7,9.8,12.4,12.9,20c3.1,7.7,4.7,15.9,4.7,24.6
		c0,8.8-1.6,17.1-4.7,24.8c-3.1,7.7-7.4,14.4-12.9,20c-5.5,5.7-12,10.2-19.6,13.4c-7.6,3.3-15.8,4.9-24.7,4.9
		c-9,0-17.3-1.6-24.9-4.9c-7.6-3.3-14.1-7.7-19.6-13.4c-5.5-5.7-9.8-12.4-12.9-20c-3.1-7.7-4.7-15.9-4.7-24.8
		c0-8.7,1.6-16.9,4.7-24.6c3.1-7.7,7.4-14.4,12.9-20c5.5-5.7,12-10.2,19.6-13.4C223.9,280,232.2,278.4,241.2,278.4z M241.2,382.6
		c5.2,0,10.2-1.1,14.7-3.2c4.6-2.1,8.6-5.1,12-8.9c3.4-3.8,6.1-8.2,8.1-13.2c2-5,2.9-10.3,2.9-16c0-5.6-1-10.9-2.9-15.9
		c-2-5-4.6-9.4-8.1-13.2c-3.4-3.8-7.4-6.7-12-8.9c-4.6-2.2-9.5-3.2-14.7-3.2c-5.3,0-10.2,1.1-14.8,3.2c-4.6,2.2-8.7,5.1-12.1,8.9
		c-3.4,3.8-6.1,8.2-8.1,13.2c-2,5-2.9,10.3-2.9,15.9c0,5.7,1,11,2.9,16c2,5,4.6,9.4,8.1,13.2c3.4,3.8,7.4,6.7,12.1,8.9
		C231,381.5,236,382.6,241.2,382.6z"/>
	<path d="M341.4,381.2h63v22.3h-87.1V277.8h24.1V381.2z"/>
	<path d="M512.2,353.1c0,7.9-1.1,15-3.2,21.3c-2.1,6.4-5.2,11.8-9.3,16.2c-4.1,4.4-9.1,7.8-15.2,10.2c-6.1,2.4-13.1,3.6-21.2,3.6
		c-8,0-15-1.2-21.1-3.6c-6-2.4-11.1-5.8-15.2-10.2c-4.1-4.4-7.2-9.8-9.3-16.2c-2.1-6.4-3.1-13.5-3.1-21.3v-74.8h24.1v75.6
		c0,18.5,8.2,27.7,24.7,27.7c16.4,0,24.7-9.2,24.7-27.7v-75.6h24.1V353.1z"/>
	<path d="M580.2,300.6v103.7h-24.1V300.6h-34v-22.3h92.1v22.3H580.2z"/>
	<path d="M649.8,404.4h-24.1v-126h24.1V404.4z"/>
	<path d="M726.2,278.4c8.9,0,17.1,1.6,24.7,4.9c7.6,3.3,14.1,7.7,19.6,13.4c5.5,5.7,9.8,12.4,12.9,20c3.1,7.7,4.7,15.9,4.7,24.6
		c0,8.8-1.6,17.1-4.7,24.8c-3.1,7.7-7.4,14.4-12.9,20c-5.5,5.7-12,10.2-19.6,13.4c-7.6,3.3-15.8,4.9-24.7,4.9
		c-9,0-17.3-1.6-24.9-4.9c-7.6-3.3-14.1-7.7-19.6-13.4c-5.5-5.7-9.8-12.4-12.9-20c-3.1-7.7-4.7-15.9-4.7-24.8
		c0-8.7,1.6-16.9,4.7-24.6c3.1-7.7,7.4-14.4,12.9-20c5.5-5.7,12-10.2,19.6-13.4C708.9,280,717.2,278.4,726.2,278.4z M726.2,382.6
		c5.2,0,10.2-1.1,14.7-3.2c4.6-2.1,8.6-5.1,12-8.9c3.4-3.8,6.1-8.2,8.1-13.2c2-5,2.9-10.3,2.9-16c0-5.6-1-10.9-2.9-15.9
		c-2-5-4.6-9.4-8.1-13.2c-3.4-3.8-7.4-6.7-12-8.9c-4.6-2.2-9.5-3.2-14.7-3.2c-5.3,0-10.2,1.1-14.8,3.2c-4.6,2.2-8.7,5.1-12.1,8.9
		c-3.4,3.8-6.1,8.2-8.1,13.2c-2,5-2.9,10.3-2.9,15.9c0,5.7,1,11,2.9,16c2,5,4.6,9.4,8.1,13.2c3.4,3.8,7.4,6.7,12.1,8.9
		C716,381.5,721,382.6,726.2,382.6z"/>
	<path d="M907,404.2h-28.7l-51.2-89.6v89.6h-23.9V278.3H832l51.1,89.6v-89.6H907V404.2z"/>
</g>
<g id="THE">
	<path class="st7" d="M139.4,200.1c0,0.9-0.5,1.3-1.3,1.3h-13.9l0.3,40.2c0,0.9-0.5,1.3-1.3,1.3h-5.7c-0.9,0-1.3-0.5-1.3-1.3
		l0.3-40.2h-13.9c-0.9,0-1.3-0.5-1.3-1.3v-4.5c0-0.9,0.5-1.3,1.3-1.3h35.6c0.9,0,1.3,0.5,1.3,1.3V200.1z"/>
	<path class="st7" d="M178.7,243c-0.9,0-1.3-0.5-1.3-1.3l0.1-20.5h-24.1l0.1,20.5c0,0.9-0.5,1.3-1.3,1.3h-5.8
		c-0.9,0-1.3-0.5-1.3-1.3l0.3-46c0-0.9,0.5-1.3,1.3-1.3h5.2c0.9,0,1.3,0.5,1.3,1.3l0.1,18.4h24.3l0.1-18.4c0-0.9,0.5-1.3,1.3-1.3
		h5.2c0.9,0,1.3,0.5,1.3,1.3l0.3,46c0,0.9-0.5,1.3-1.3,1.3H178.7z"/>
	<path class="st7" d="M203.2,214h20.3c0.9,0,1.3,0.5,1.3,1.3v4.5c0,0.9-0.5,1.3-1.3,1.3h-20.3l0.1,14.7h23c0.9,0,1.3,0.5,1.3,1.3
		v4.5c0,0.9-0.5,1.3-1.3,1.3h-30.1c-0.9,0-1.3-0.5-1.3-1.3l0.3-46c0-0.9,0.5-1.3,1.3-1.3h29.8c0.9,0,1.3,0.5,1.3,1.3v4.5
		c0,0.9-0.5,1.3-1.3,1.3h-23.2L203.2,214z"/>
</g>
</svg>
